<svg xmlns="http://www.w3.org/2000/svg" viewBox="0 0 1536 1536" role="img" aria-labelledby="title desc">
<title id="title">Tuwano Jewellers logo</title><desc id="desc">Original Tuwano Jewellers diamond and wordmark traced from the supplied logo artwork.</desc>
<g fill="#15106f" fill-rule="evenodd" stroke="none">
<path d="M 1035,1218 1030,1230 1018,1244 1009,1249 998,1250 1011,1250 1012,1247 1024,1240 1032,1227 Z"/>
<path d="M 104,1212 104,1242 109,1244 284,1243 104,1242 106,1238 108,1241 281,1241 283,1219 282,1214 279,1212 284,1212 283,1210 106,1210 Z"/>
<path d="M 1272,1206 1284,1208 1275,1209 1273,1211 1273,1233 1276,1238 1272,1239 1443,1239 1441,1238 1444,1236 1448,1239 1447,1237 1450,1230 1451,1239 1450,1206 Z"/>
<path d="M 516,1150 517,1153 521,1154 526,1159 534,1173 565,1258 568,1259 572,1258 595,1201 585,1222 584,1219 604,1172 605,1176 596,1199 604,1178 607,1175 640,1258 642,1258 640,1257 642,1254 644,1255 647,1252 647,1257 644,1259 647,1258 684,1168 696,1154 702,1152 701,1150 701,1153 693,1154 692,1152 679,1152 679,1154 672,1153 675,1153 679,1157 680,1168 668,1198 678,1176 682,1161 683,1164 685,1161 686,1164 681,1172 674,1193 665,1211 665,1215 663,1216 662,1213 667,1200 659,1221 656,1223 650,1212 634,1168 635,1158 639,1154 644,1153 646,1150 644,1153 639,1154 634,1152 594,1153 592,1151 593,1150 592,1152 598,1153 603,1157 605,1166 584,1220 580,1223 559,1168 559,1160 561,1156 568,1153 560,1155 557,1152 524,1152 522,1154 517,1153 516,1151 565,1150 Z"/>
<path d="M 1137,1153 1124,1148 1108,1148 1098,1152 1089,1161 1084,1148 1048,1154 1049,1156 1056,1157 1062,1165 1063,1178 1062,1241 1057,1252 1050,1255 1048,1258 1097,1259 1083,1257 1092,1256 1094,1254 1101,1256 1102,1258 1099,1259 1101,1259 1102,1256 1097,1255 1092,1251 1087,1238 1088,1177 1095,1162 1106,1153 1115,1154 1128,1171 1137,1172 1141,1169 1143,1164 1141,1157 Z"/>
<path d="M 1174,1147 1163,1150 1151,1160 1146,1174 1148,1192 1153,1200 1162,1207 1192,1218 1204,1225 1209,1234 1208,1244 1205,1249 1195,1255 1184,1256 1174,1254 1163,1249 1152,1239 1146,1225 1146,1255 1146,1252 1148,1250 1150,1251 1148,1257 1146,1258 1148,1258 1151,1253 1155,1253 1169,1258 1182,1260 1170,1258 1167,1255 1162,1255 1160,1252 1165,1251 1172,1255 1188,1257 1197,1255 1206,1250 1208,1246 1210,1247 1211,1250 1201,1258 1192,1260 1195,1260 1208,1254 1219,1240 1222,1228 1220,1211 1212,1200 1206,1196 1168,1180 1161,1171 1161,1165 1164,1159 1174,1152 1189,1152 1200,1157 1205,1162 1211,1172 1212,1178 1208,1165 1209,1162 1211,1164 1211,1158 1213,1160 1214,1175 1212,1150 1201,1152 1187,1147 Z"/>
<path d="M 980,1147 971,1149 961,1154 946,1168 937,1186 935,1211 939,1228 945,1239 954,1249 972,1259 980,1260 977,1258 979,1257 987,1260 997,1260 1013,1254 1025,1244 1034,1230 1038,1216 1036,1216 1038,1218 1032,1233 1015,1252 1010,1255 1007,1254 1008,1252 987,1252 985,1250 986,1249 994,1250 981,1246 967,1230 962,1216 961,1201 963,1199 1039,1199 1039,1188 1032,1169 1019,1155 1007,1149 998,1147 Z"/>
<path d="M 740,1147 731,1149 721,1154 706,1168 697,1187 695,1212 697,1222 703,1236 714,1249 721,1254 736,1260 757,1260 773,1254 786,1243 795,1228 798,1216 797,1215 795,1217 792,1227 778,1244 765,1250 750,1250 741,1246 727,1230 722,1215 722,1200 725,1198 799,1199 800,1194 796,1177 792,1169 779,1155 763,1148 Z"/>
<path d="M 463,1147 454,1149 441,1156 433,1163 426,1173 419,1193 419,1216 426,1236 441,1252 459,1260 480,1260 493,1256 510,1242 519,1226 521,1216 519,1216 514,1229 503,1243 488,1250 473,1250 462,1244 452,1233 445,1216 444,1201 446,1199 522,1199 522,1186 516,1170 501,1154 491,1149 481,1147 Z"/>
<path d="M 104,1144 105,1175 284,1175 281,1173 283,1169 282,1146 275,1143 283,1142 105,1142 Z"/>
<path d="M 1272,1139 1451,1140 1450,1154 1449,1142 1443,1141 1276,1141 1274,1142 1273,1168 1276,1171 1272,1172 1451,1172 1450,1139 Z"/>
<path d="M 417,1101 355,1101 372,1103 365,1104 364,1106 354,1105 353,1102 354,1105 364,1107 370,1113 372,1119 372,1284 369,1291 365,1295 359,1298 349,1298 334,1279 324,1278 319,1283 319,1290 330,1299 347,1303 357,1303 371,1300 386,1291 395,1279 399,1264 399,1119 401,1113 407,1107 416,1105 406,1106 406,1104 398,1103 416,1101 418,1104 Z"/>
<path d="M 912,1096 872,1101 872,1104 881,1105 887,1114 887,1239 884,1249 879,1254 872,1256 871,1258 873,1259 925,1259 914,1257 918,1254 926,1256 927,1258 916,1250 912,1237 Z"/>
<path d="M 847,1095 812,1100 825,1101 819,1105 810,1104 810,1101 808,1102 809,1104 816,1104 823,1112 823,1242 821,1248 815,1254 808,1257 810,1259 812,1259 810,1259 808,1257 816,1255 821,1249 823,1251 820,1255 818,1255 826,1257 818,1259 814,1258 815,1259 864,1258 853,1251 848,1236 849,1098 Z"/>
<path d="M 1018,810 1018,853 1020,855 1031,854 1035,857 1035,982 1032,985 1018,985 1019,1030 1113,1031 1117,1029 1117,986 1102,985 1100,983 1101,905 1104,906 1184,1030 1259,1031 1264,1029 1264,856 1269,854 1281,854 1281,809 1182,809 1182,854 1193,854 1199,856 1198,921 1195,919 1123,809 Z"/>
<path d="M 846,809 798,982 795,985 786,985 786,1029 794,1031 881,1031 883,1029 883,986 868,985 866,983 869,964 872,961 909,961 913,973 914,983 912,985 898,985 901,986 899,996 897,993 897,987 897,1024 897,998 899,996 900,1026 902,1029 898,1030 897,1028 898,1031 1009,1030 1009,985 1000,985 996,981 950,811 948,809 Z"/>
<path d="M 462,810 462,853 473,855 475,859 513,1030 612,1030 634,934 641,912 644,914 670,1030 766,1031 769,1029 804,864 804,858 807,855 817,853 816,809 719,809 718,853 730,855 734,854 737,856 724,960 721,963 718,959 688,809 607,809 575,960 572,963 569,959 556,857 559,854 572,855 575,853 575,810 Z"/>
<path d="M 237,809 237,854 250,854 254,856 255,971 260,989 271,1008 282,1018 296,1026 312,1031 332,1034 362,1034 378,1032 395,1027 414,1016 428,999 436,979 439,959 439,856 452,855 456,853 456,810 356,810 356,854 364,854 368,858 367,972 366,976 361,982 349,985 340,982 335,977 333,972 333,856 337,854 344,854 344,809 Z"/>
<path d="M 15,809 16,877 62,877 63,856 65,854 76,854 82,856 82,983 80,985 62,986 62,1029 65,1031 181,1030 181,985 163,985 161,983 161,856 164,854 179,855 181,857 182,877 228,877 228,809 Z"/>
<path d="M 1343,812 1318,826 1309,835 1299,849 1289,874 1284,908 1285,945 1291,972 1299,990 1310,1005 1321,1015 1341,1026 1362,1032 1377,1034 1409,1034 1432,1030 1452,1023 1466,1014 1483,996 1491,981 1498,960 1501,941 1501,898 1496,872 1487,850 1471,829 1454,817 1440,811 1409,805 1376,805 Z"/>
<path d="M 1167,309 1104,309 856,659 1157,323 Z"/>
<path d="M 1082,309 965,310 798,710 801,708 1077,319 Z"/>
<path d="M 946,309 826,309 825,311 825,484 822,503 815,524 798,555 771,584 755,596 732,608 701,617 759,757 761,756 938,332 Z"/>
<path d="M 437,309 445,323 721,712 721,708 684,620 671,619 669,617 670,615 679,612 677,602 555,311 553,309 Z"/>
<path d="M 352,309 352,311 662,657 415,309 Z"/>
<path d="M 708,209 604,209 572,291 574,293 707,292 Z"/>
<path d="M 825,209 826,292 947,292 914,207 Z"/>
<path d="M 1075,151 1105,291 1108,293 1170,293 1170,290 1078,156 1082,163 1081,166 1079,165 1075,155 1077,154 Z"/>
<path d="M 445,151 349,290 350,293 413,292 Z"/>
<path d="M 466,136 431,290 438,290 431,292 544,293 545,290 Z"/>
<path d="M 1053,135 974,290 975,293 1087,293 1089,291 Z"/>
<path d="M 955,57 568,56 484,106 474,115 558,279 560,278 586,210 568,179 572,176 758,176 761,179 762,467 761,482 759,484 712,485 708,483 707,309 573,309 589,351 695,603 698,603 717,590 743,563 761,531 769,504 771,492 771,180 775,176 952,176 955,179 933,205 933,210 958,275 961,279 1040,124 1040,119 1043,114 1035,106 Z"/></g></svg>